<svg width="57" height="58" viewBox="0 0 57 58" fill="none" xmlns="http://www.w3.org/2000/svg">
<rect y="0.5" width="57" height="57" fill="#0A72AD"/>
<path d="M35.8044 31.1812L31.5703 35.414L31.5703 35.414C31.3486 35.6357 31.224 35.9364 31.224 36.25C31.224 36.5635 31.3486 36.8642 31.5703 37.086C31.792 37.3077 32.0927 37.4322 32.4062 37.4322C32.7198 37.4322 33.0205 37.3077 33.2422 37.086L39.4919 30.8363C39.6019 30.7266 39.6891 30.5962 39.7487 30.4527C39.8082 30.3092 39.8389 30.1554 39.8389 30C39.8389 29.8446 39.8082 29.6908 39.7487 29.5473C39.6891 29.4037 39.6019 29.2734 39.4919 29.1637L33.2422 22.914C33.0205 22.6923 32.7198 22.5678 32.4062 22.5678C32.0927 22.5678 31.792 22.6923 31.5703 22.914C31.3486 23.1357 31.224 23.4364 31.224 23.75C31.224 24.0635 31.3486 24.3642 31.5703 24.586L31.5703 24.586L35.8044 28.8187H18.3438C18.0305 28.8187 17.73 28.9432 17.5085 29.1647L17.7902 29.4464L17.5085 29.1647C17.287 29.3862 17.1625 29.6867 17.1625 30C17.1625 30.3133 17.287 30.6137 17.5085 30.8353C17.73 31.0568 18.0305 31.1812 18.3438 31.1812H35.8044Z" fill="white" stroke="white" stroke-width="0.8"/>
</svg>
