<svg width="95" height="94" viewBox="0 0 95 94" fill="none" xmlns="http://www.w3.org/2000/svg">
<circle cx="47.668" cy="47" r="47" fill="#2387C0" fill-opacity="0.3"/>
<circle cx="47.668" cy="47" r="37" fill="#2387C0"/>
<path d="M59.4219 32.2813H51.0205C50.7593 32.2811 50.5086 32.3843 50.3232 32.5684L33.5273 49.3643C33.1596 49.7338 32.9531 50.234 32.9531 50.7554C32.9531 51.2768 33.1596 51.7769 33.5273 52.1465L41.5254 60.1445C41.895 60.5123 42.3951 60.7188 42.9165 60.7188C43.4379 60.7188 43.9381 60.5123 44.3076 60.1445L61.0967 43.3555C61.2808 43.1701 61.384 42.9194 61.3838 42.6582V34.25C61.3851 33.9917 61.3352 33.7357 61.2372 33.4967C61.1391 33.2577 60.9947 33.0405 60.8124 32.8575C60.6301 32.6745 60.4133 32.5294 60.1747 32.4305C59.936 32.3316 59.6802 32.2809 59.4219 32.2813V32.2813Z" stroke="white" stroke-width="3" stroke-linecap="round" stroke-linejoin="round"/>
<path d="M55.918 39.9375C55.4853 39.9375 55.0624 39.8092 54.7027 39.5688C54.3429 39.3285 54.0625 38.9868 53.897 38.5871C53.7314 38.1874 53.6881 37.7476 53.7725 37.3232C53.8569 36.8989 54.0652 36.5091 54.3712 36.2032C54.6771 35.8973 55.0669 35.6889 55.4912 35.6045C55.9155 35.5201 56.3554 35.5634 56.7551 35.729C57.1548 35.8946 57.4964 36.175 57.7368 36.5347C57.9772 36.8944 58.1055 37.3174 58.1055 37.75C58.1055 38.3302 57.875 38.8866 57.4648 39.2968C57.0545 39.707 56.4981 39.9375 55.918 39.9375Z" fill="white"/>
</svg>
