<svg width="95" height="94" viewBox="0 0 95 94" fill="none" xmlns="http://www.w3.org/2000/svg">
<circle cx="47.332" cy="47" r="47" fill="#2387C0" fill-opacity="0.3"/>
<circle cx="47.332" cy="47" r="37" fill="#2387C0"/>
<path d="M67.9383 42.7031H56.9383C56.7492 42.7031 56.5945 42.8578 56.5945 43.0469V45.1094C56.5945 45.2984 56.7492 45.4531 56.9383 45.4531H67.9383C68.1273 45.4531 68.282 45.2984 68.282 45.1094V43.0469C68.282 42.8578 68.1273 42.7031 67.9383 42.7031ZM62.1805 48.5469H56.9383C56.7492 48.5469 56.5945 48.7016 56.5945 48.8906V50.9531C56.5945 51.1422 56.7492 51.2969 56.9383 51.2969H62.1805C62.3695 51.2969 62.5242 51.1422 62.5242 50.9531V48.8906C62.5242 48.7016 62.3695 48.5469 62.1805 48.5469ZM47.8418 38.8574H45.9813C45.7148 38.8574 45.5 39.0723 45.5 39.3387V49.9949C45.5 50.1496 45.573 50.2914 45.6977 50.3816L52.0957 55.048C52.3105 55.2027 52.6113 55.1598 52.766 54.9449L53.8703 53.4367V53.4324C54.025 53.2176 53.9777 52.9168 53.7629 52.7621L48.3188 48.8262V39.3387C48.323 39.0723 48.1039 38.8574 47.8418 38.8574V38.8574Z" fill="white"/>
<path d="M61.9133 53.9566H59.4297C59.1891 53.9566 58.9614 54.0812 58.8324 54.2874C58.2867 55.1511 57.6508 55.9503 56.9203 56.6808C55.6614 57.9398 54.1961 58.9281 52.5676 59.6156C50.8789 60.3288 49.0871 60.6898 47.2395 60.6898C45.3875 60.6898 43.5957 60.3288 41.9114 59.6156C40.2828 58.9281 38.8176 57.9398 37.5586 56.6808C36.2996 55.4218 35.3114 53.9566 34.6239 52.3281C33.9106 50.6437 33.5496 48.8519 33.5496 46.9999C33.5496 45.148 33.9106 43.3605 34.6239 41.6718C35.3114 40.0433 36.2996 38.5781 37.5586 37.3191C38.8176 36.0601 40.2828 35.0718 41.9114 34.3843C43.5957 33.671 45.3918 33.3101 47.2395 33.3101C49.0914 33.3101 50.8832 33.671 52.5676 34.3843C54.1961 35.0718 55.6614 36.0601 56.9203 37.3191C57.6508 38.0496 58.2867 38.8488 58.8324 39.7124C58.9614 39.9187 59.1891 40.0433 59.4297 40.0433H61.9133C62.2098 40.0433 62.3989 39.7339 62.2657 39.4718C59.4641 33.8988 53.7836 30.2765 47.4414 30.2035C38.1559 30.0874 30.443 37.6886 30.4258 46.9656C30.4086 56.2597 37.941 63.8007 47.2352 63.8007C53.659 63.8007 59.434 60.1656 62.2657 54.5281C62.3989 54.266 62.2055 53.9566 61.9133 53.9566V53.9566Z" fill="white"/>
</svg>
