<svg width="39" height="45" viewBox="0 0 39 45" fill="none" xmlns="http://www.w3.org/2000/svg">
<path d="M22.1313 35.6032L0.775486 23.2666C0.426238 23.0727 -0.000617981 23.3184 -0.000617981 23.7192V32.5772C-0.000617981 33.0815 0.271018 33.5341 0.697876 33.7928L18.7035 44.1896C19.1304 44.4353 19.6737 44.4353 20.1005 44.1896L24.8089 41.474V41.461L30.6297 38.0989V38.1119L34.9371 35.6291C38.4684 33.5859 38.6883 28.5169 35.2863 26.2668C35.2087 26.2151 35.1441 26.1763 35.0664 26.1245L11.9126 12.7406C11.8997 12.7277 11.8738 12.7147 11.8609 12.7018C9.1445 11.1113 9.1833 7.18012 11.9126 5.60251L13.9952 4.39989C14.0857 6.21028 15.0817 7.86549 16.6727 8.77068L38.0286 21.0942C38.3778 21.2882 38.8047 21.0425 38.8047 20.6416L38.8047 11.7966C38.8047 11.2923 38.5331 10.8397 38.1062 10.5811L20.1005 0.184277C19.6737 -0.0614256 19.1304 -0.0614256 18.7035 0.184277L16.621 1.38689L6.0142 7.50341L3.75056 8.8224C0.219278 10.8656 0.05112 15.9734 3.53066 18.133C3.59534 18.1718 3.67295 18.2235 3.73763 18.2623L26.9044 31.6333C26.9173 31.6463 26.9432 31.6592 26.9561 31.6721C29.6596 33.2626 29.6208 37.1937 26.9044 38.7585L24.8089 39.974C24.7054 38.1507 23.7094 36.5084 22.1313 35.6032Z" fill="#268FCA"/>
</svg>
