<svg width="180" height="45" viewBox="0 0 180 45" fill="none" xmlns="http://www.w3.org/2000/svg">
<path d="M22.1313 35.6032L0.775488 23.2666C0.42624 23.0727 -0.000618458 23.3184 -0.000618458 23.7192V32.5772C-0.000618458 33.0815 0.271018 33.5341 0.697876 33.7928L18.7035 44.1896C19.1304 44.4353 19.6737 44.4353 20.1005 44.1896L24.8089 41.474V41.461L30.6297 38.0989V38.1119L34.9371 35.6291C38.4684 33.5859 38.6883 28.5169 35.2863 26.2668C35.2087 26.2151 35.1441 26.1763 35.0664 26.1245L11.9126 12.7406C11.8997 12.7277 11.8738 12.7147 11.8609 12.7018C9.1445 11.1113 9.1833 7.18012 11.9126 5.60251L13.9952 4.39989C14.0857 6.21028 15.0817 7.86549 16.6727 8.77068L38.0286 21.0942C38.3778 21.2882 38.8047 21.0425 38.8047 20.6416L38.8047 11.7966C38.8047 11.2923 38.5331 10.8397 38.1062 10.5811L20.1005 0.184277C19.6737 -0.0614256 19.1304 -0.0614256 18.7035 0.184277L16.621 1.38689L6.0142 7.50341L3.75056 8.8224C0.219278 10.8656 0.0511204 15.9734 3.53066 18.133C3.59534 18.1718 3.67295 18.2235 3.73763 18.2623L26.9044 31.6333C26.9173 31.6463 26.9432 31.6592 26.9561 31.6721C29.6596 33.2626 29.6208 37.1937 26.9044 38.7585L24.8089 39.974C24.7054 38.1507 23.7094 36.5084 22.1313 35.6032Z" fill="#268FCA"/>
<path d="M57.2925 17.6959C56.156 17.6959 55.0916 17.6078 54.0991 17.4317C53.1227 17.2717 52.2583 16.9915 51.506 16.5914C50.7696 16.1752 50.1854 15.6069 49.7532 14.8866C49.337 14.1503 49.1289 13.2299 49.1289 12.1254C49.1289 12.0934 49.1289 12.0533 49.1289 12.0053C49.1289 11.9413 49.1369 11.8773 49.1529 11.8132H54.1711C54.1551 11.8773 54.1471 11.9413 54.1471 12.0053C54.1471 12.0533 54.1471 12.1014 54.1471 12.1494C54.1471 12.6296 54.2592 12.9978 54.4833 13.2539C54.7074 13.51 55.0195 13.6861 55.4197 13.7821C55.8359 13.8622 56.3001 13.9022 56.8123 13.9022C57.0044 13.9022 57.2045 13.9022 57.4126 13.9022C57.6367 13.8862 57.8448 13.8622 58.0369 13.8301C58.245 13.7821 58.429 13.7181 58.5891 13.6381C58.7652 13.558 58.9012 13.454 58.9973 13.3259C59.0933 13.1818 59.1413 13.0058 59.1413 12.7977C59.1413 12.4935 59.0053 12.2534 58.7332 12.0774C58.461 11.9013 58.0929 11.7492 57.6287 11.6212C57.1645 11.4931 56.6442 11.373 56.068 11.261C55.4917 11.1489 54.8915 11.0209 54.2672 10.8768C53.6429 10.7168 53.0426 10.5167 52.4664 10.2766C51.8901 10.0365 51.3699 9.73232 50.9057 9.36416C50.4415 8.97998 50.0733 8.50777 49.8012 7.94753C49.5291 7.37127 49.393 6.68296 49.393 5.88261C49.393 4.92218 49.5931 4.10582 49.9933 3.43352C50.3935 2.76123 50.9377 2.21698 51.626 1.8008C52.3303 1.38461 53.1227 1.08048 54.0031 0.888394C54.8995 0.696309 55.8359 0.600266 56.8123 0.600266C57.8048 0.600266 58.7332 0.704312 59.5976 0.912404C60.4779 1.10449 61.2543 1.40862 61.9266 1.82481C62.5989 2.24099 63.1271 2.76923 63.5113 3.40951C63.8955 4.0498 64.0955 4.81013 64.1116 5.69052V5.97865H59.1413V5.88261C59.1413 5.59448 59.0693 5.32236 58.9253 5.06625C58.7812 4.81013 58.5491 4.60204 58.2289 4.44197C57.9248 4.2819 57.5166 4.20186 57.0044 4.20186C56.5242 4.20186 56.116 4.24989 55.7799 4.34593C55.4597 4.44197 55.2196 4.57803 55.0595 4.75411C54.8995 4.91418 54.8194 5.09026 54.8194 5.28234C54.8194 5.58648 54.9555 5.83459 55.2276 6.02667C55.4997 6.21876 55.8679 6.37883 56.3321 6.50689C56.7963 6.63494 57.3165 6.755 57.8928 6.86705C58.469 6.9791 59.0693 7.10715 59.6936 7.25122C60.3179 7.37927 60.9181 7.55535 61.4944 7.77945C62.0706 8.00355 62.5909 8.29968 63.0551 8.66785C63.5193 9.02 63.8875 9.4602 64.1596 9.98843C64.4317 10.5167 64.5678 11.165 64.5678 11.9333C64.5678 13.2939 64.2476 14.3984 63.6073 15.2468C62.9831 16.0951 62.1187 16.7194 61.0142 17.1196C59.9257 17.5038 58.6851 17.6959 57.2925 17.6959Z" fill="black"/>
<path d="M73.42 17.6959C71.9794 17.6959 70.7228 17.4557 69.6503 16.9755C68.5939 16.4793 67.7695 15.743 67.1772 14.7666C66.585 13.7741 66.2888 12.5416 66.2888 11.0689C66.2888 9.58025 66.585 8.3477 67.1772 7.37127C67.7695 6.37883 68.5939 5.6425 69.6503 5.16229C70.7228 4.66607 71.9794 4.41796 73.42 4.41796C74.3804 4.41796 75.2848 4.52201 76.1332 4.7301C76.9816 4.93819 77.7259 5.25833 78.3662 5.69052C79.0065 6.12272 79.5027 6.68296 79.8548 7.37127C80.223 8.05958 80.4071 8.88394 80.4071 9.84437H75.773C75.773 9.34815 75.677 8.93997 75.4849 8.61982C75.3088 8.29968 75.0447 8.06758 74.6926 7.92352C74.3404 7.76344 73.9162 7.68341 73.42 7.68341C72.8597 7.68341 72.4035 7.79546 72.0514 8.01956C71.7152 8.22765 71.4671 8.53979 71.3071 8.95597C71.147 9.35615 71.0669 9.83636 71.0669 10.3966V11.7652C71.0669 12.3255 71.147 12.8057 71.3071 13.2059C71.4831 13.606 71.7473 13.9182 72.0994 14.1423C72.4676 14.3504 72.9398 14.4544 73.516 14.4544C74.0443 14.4544 74.4845 14.3824 74.8366 14.2383C75.2048 14.0782 75.4849 13.8381 75.677 13.518C75.8691 13.1818 75.9651 12.7577 75.9651 12.2454H80.4071C80.4071 13.2059 80.223 14.0382 79.8548 14.7425C79.5027 15.4308 79.0065 15.9911 78.3662 16.4233C77.7259 16.8555 76.9816 17.1756 76.1332 17.3837C75.2848 17.5918 74.3804 17.6959 73.42 17.6959Z" fill="black"/>
<path d="M86.6257 17.6959C85.9694 17.6959 85.3691 17.6318 84.8249 17.5038C84.2806 17.3917 83.8084 17.1996 83.4082 16.9275C83.0081 16.6394 82.6959 16.2712 82.4718 15.823C82.2637 15.3588 82.1597 14.7986 82.1597 14.1423C82.1597 13.1979 82.3518 12.4295 82.7359 11.8373C83.1361 11.245 83.7124 10.7888 84.4647 10.4686C85.217 10.1485 86.1294 9.93241 87.2019 9.82036C88.2904 9.6923 89.531 9.62827 90.9236 9.62827V9.00399C90.9236 8.65184 90.8355 8.37171 90.6595 8.16362C90.4994 7.93952 90.2833 7.77145 90.0112 7.6594C89.739 7.54735 89.4269 7.49132 89.0748 7.49132C88.8026 7.49132 88.5225 7.52334 88.2344 7.58737C87.9462 7.65139 87.7061 7.76344 87.5141 7.92352C87.338 8.08359 87.2499 8.30769 87.2499 8.59581V8.69186H82.5439C82.5278 8.62783 82.5198 8.5718 82.5198 8.52378C82.5198 8.47576 82.5198 8.41974 82.5198 8.35571C82.5198 7.57136 82.768 6.89106 83.2642 6.3148C83.7764 5.72254 84.5207 5.26634 85.4972 4.94619C86.4896 4.61005 87.7061 4.44197 89.1468 4.44197C90.3153 4.44197 91.3958 4.57003 92.3882 4.82614C93.3807 5.08225 94.181 5.51445 94.7893 6.12272C95.3976 6.71498 95.7017 7.53134 95.7017 8.5718V13.518C95.7017 13.7741 95.7657 13.9982 95.8938 14.1903C96.0218 14.3664 96.2139 14.4544 96.47 14.4544H97.3344V17.2156C97.1423 17.3277 96.8222 17.4317 96.374 17.5278C95.9418 17.6398 95.4296 17.6959 94.8373 17.6959C94.197 17.6959 93.6368 17.6318 93.1566 17.5038C92.6763 17.3757 92.2842 17.1916 91.98 16.9515C91.6919 16.7114 91.4918 16.4313 91.3798 16.1111H91.2117C90.8755 16.4153 90.4834 16.6874 90.0352 16.9275C89.603 17.1676 89.1068 17.3517 88.5465 17.4798C87.9863 17.6238 87.346 17.6959 86.6257 17.6959ZM88.5705 14.7185C88.8747 14.7185 89.1628 14.6785 89.4349 14.5985C89.723 14.5024 89.9792 14.3824 90.2032 14.2383C90.4273 14.0782 90.6034 13.8942 90.7315 13.6861C90.8595 13.462 90.9236 13.2219 90.9236 12.9658V11.8853C89.9792 11.8853 89.2108 11.9573 88.6185 12.1014C88.0423 12.2454 87.6181 12.4375 87.346 12.6776C87.0739 12.9177 86.9378 13.1979 86.9378 13.518C86.9378 13.8381 87.0178 14.0862 87.1779 14.2623C87.338 14.4384 87.5381 14.5585 87.7782 14.6225C88.0343 14.6865 88.2984 14.7185 88.5705 14.7185Z" fill="black"/>
<path d="M98.8949 17.4077V0H103.673V17.4077H98.8949Z" fill="black"/>
<path d="M109.924 17.4077L105.122 4.7301H110.26L111.485 8.83592C111.565 9.06002 111.661 9.39617 111.773 9.84437C111.901 10.2926 112.037 10.7648 112.181 11.261C112.341 11.7572 112.477 12.2134 112.589 12.6296H112.757C112.869 12.2454 112.997 11.8132 113.141 11.333C113.285 10.8368 113.421 10.3646 113.549 9.9164C113.678 9.4682 113.782 9.10804 113.862 8.83592L115.086 4.7301H119.792L114.942 17.4077H109.924Z" fill="black"/>
<path d="M127.796 17.6959C126.355 17.6959 125.098 17.4557 124.026 16.9755C122.97 16.4793 122.145 15.743 121.553 14.7666C120.961 13.7741 120.665 12.5416 120.665 11.0689C120.665 9.58025 120.961 8.3477 121.553 7.37127C122.145 6.39484 122.97 5.66651 124.026 5.1863C125.098 4.69008 126.355 4.44197 127.796 4.44197C129.236 4.44197 130.493 4.69008 131.565 5.1863C132.638 5.66651 133.47 6.39484 134.062 7.37127C134.655 8.3477 134.951 9.58025 134.951 11.0689C134.951 12.5416 134.655 13.7741 134.062 14.7666C133.47 15.743 132.638 16.4793 131.565 16.9755C130.493 17.4557 129.236 17.6959 127.796 17.6959ZM127.796 14.4544C128.356 14.4544 128.812 14.3504 129.164 14.1423C129.516 13.9182 129.773 13.606 129.933 13.2059C130.093 12.8057 130.173 12.3255 130.173 11.7652V10.3966C130.173 9.83636 130.093 9.35615 129.933 8.95597C129.773 8.53979 129.516 8.22765 129.164 8.01956C128.812 7.79546 128.356 7.68341 127.796 7.68341C127.235 7.68341 126.779 7.79546 126.427 8.01956C126.091 8.22765 125.843 8.53979 125.683 8.95597C125.523 9.35615 125.443 9.83636 125.443 10.3966V11.7652C125.443 12.3255 125.523 12.8057 125.683 13.2059C125.843 13.606 126.091 13.9182 126.427 14.1423C126.779 14.3504 127.235 14.4544 127.796 14.4544Z" fill="black"/>
<path d="M137.256 17.4077V4.7301H141.169L141.482 6.65095H141.65C141.986 6.15473 142.378 5.74655 142.826 5.42641C143.274 5.09026 143.771 4.84215 144.315 4.68208C144.859 4.52201 145.419 4.44197 145.996 4.44197C147.004 4.44197 147.828 4.63406 148.469 5.01823C149.125 5.38639 149.613 5.92263 149.933 6.62694C150.253 7.33125 150.414 8.18763 150.414 9.19608V17.4077H145.635V9.77234C145.635 9.50022 145.595 9.26011 145.515 9.05202C145.451 8.82792 145.355 8.63583 145.227 8.47576C145.099 8.31569 144.931 8.19564 144.723 8.1156C144.531 8.01956 144.299 7.97154 144.027 7.97154C143.627 7.97154 143.274 8.06758 142.97 8.25966C142.682 8.43574 142.45 8.67585 142.274 8.97998C142.114 9.26811 142.034 9.59626 142.034 9.96442V17.4077H137.256Z" fill="black"/>
<path d="M153.271 3.24144V0H158.049V3.24144H153.271ZM153.271 17.4077V4.7301H158.049V17.4077H153.271Z" fill="black"/>
<path d="M48.2422 44.0858L54.7011 27.6145H58.1346L64.6175 44.0858H61.7362L60.2715 40.2681H52.4681L51.0034 44.0858H48.2422ZM53.3324 37.9871H59.3831L57.5343 33.1609C57.4863 33.0169 57.4143 32.8168 57.3182 32.5607C57.2222 32.3046 57.1181 32.0244 57.0061 31.7203C56.91 31.4162 56.806 31.112 56.6939 30.8079C56.5979 30.4877 56.5099 30.1996 56.4298 29.9435H56.2858C56.1897 30.2476 56.0697 30.6078 55.9256 31.024C55.7815 31.4402 55.6375 31.8403 55.4934 32.2245C55.3653 32.6087 55.2533 32.9208 55.1573 33.1609L53.3324 37.9871Z" fill="black"/>
<path d="M66.4017 44.0858V31.4562H68.4667L68.6828 33.4971H68.8268C68.9709 33.0969 69.155 32.7207 69.3791 32.3686C69.6192 32.0164 69.9233 31.7283 70.2915 31.5042C70.6756 31.2801 71.1398 31.168 71.6841 31.168C71.9402 31.168 72.1643 31.1921 72.3564 31.2401C72.5645 31.2881 72.7246 31.3281 72.8366 31.3601V33.7132H71.9962C71.484 33.7132 71.0278 33.7932 70.6276 33.9533C70.2434 34.1134 69.9153 34.3535 69.6432 34.6736C69.3871 34.9777 69.195 35.3539 69.0669 35.8021C68.9549 36.2503 68.8989 36.7545 68.8989 37.3148V44.0858H66.4017Z" fill="black"/>
<path d="M79.486 44.3739C78.2215 44.3739 77.165 44.1418 76.3166 43.6776C75.4683 43.1974 74.828 42.4691 74.3958 41.4926C73.9796 40.5162 73.7715 39.2756 73.7715 37.771C73.7715 36.2663 73.9876 35.0338 74.4198 34.0733C74.852 33.0969 75.4923 32.3686 76.3407 31.8884C77.205 31.4082 78.2615 31.168 79.5101 31.168C80.3744 31.168 81.1268 31.2801 81.7671 31.5042C82.4073 31.7123 82.9516 32.0324 83.3998 32.4646C83.848 32.8808 84.1761 33.401 84.3842 34.0253C84.6083 34.6496 84.7204 35.3619 84.7204 36.1623H82.1993C82.1993 35.49 82.1032 34.9377 81.9111 34.5055C81.719 34.0733 81.4229 33.7532 81.0227 33.5451C80.6226 33.321 80.1023 33.209 79.462 33.209C78.7897 33.209 78.2215 33.369 77.7573 33.6892C77.2931 33.9933 76.9409 34.4655 76.7008 35.1058C76.4607 35.7301 76.3407 36.5544 76.3407 37.5789V37.9871C76.3407 38.9635 76.4527 39.7799 76.6768 40.4362C76.9169 41.0764 77.2691 41.5567 77.7333 41.8768C78.2135 42.1809 78.8218 42.333 79.5581 42.333C80.1984 42.333 80.7106 42.221 81.0948 41.9969C81.4949 41.7567 81.7911 41.4206 81.9832 40.9884C82.1912 40.5402 82.2953 40.004 82.2953 39.3797H84.7204C84.7204 40.132 84.6083 40.8123 84.3842 41.4206C84.1761 42.0289 83.848 42.5571 83.3998 43.0053C82.9676 43.4375 82.4234 43.7736 81.7671 44.0137C81.1108 44.2539 80.3504 44.3739 79.486 44.3739Z" fill="black"/>
<path d="M87.2469 44.0858V26.7261H89.744V32.9688H89.9121C90.2162 32.5847 90.5604 32.2645 90.9446 32.0084C91.3287 31.7363 91.7609 31.5282 92.2411 31.3841C92.7214 31.2401 93.2496 31.168 93.8258 31.168C94.6262 31.168 95.3305 31.3121 95.9388 31.6002C96.5471 31.8724 97.0193 32.3206 97.3554 32.9448C97.7076 33.5691 97.8837 34.4095 97.8837 35.466V44.0858H95.3865V35.8501C95.3865 35.3699 95.3225 34.9697 95.1945 34.6496C95.0824 34.3294 94.9143 34.0733 94.6902 33.8813C94.4661 33.6892 94.202 33.5531 93.8979 33.4731C93.5937 33.393 93.2576 33.353 92.8894 33.353C92.3132 33.353 91.7849 33.4891 91.3047 33.7612C90.8405 34.0333 90.4644 34.4175 90.1762 34.9137C89.8881 35.4099 89.744 36.0022 89.744 36.6905V44.0858H87.2469Z" fill="black"/>
<path d="M101.011 29.2712V26.7261H103.508V29.2712H101.011ZM101.011 44.0858V31.4562H103.508V44.0858H101.011Z" fill="black"/>
<path d="M109.878 44.3739C109.157 44.3739 108.589 44.2378 108.173 43.9657C107.773 43.6776 107.484 43.3174 107.308 42.8852C107.148 42.437 107.068 41.9648 107.068 41.4686V33.5211H105.484V31.4562H107.116L107.573 27.9266H109.565V31.4562H111.846V33.5211H109.565V41.1805C109.565 41.5487 109.645 41.8288 109.806 42.0209C109.966 42.2129 110.23 42.309 110.598 42.309H111.846V43.9897C111.686 44.0538 111.486 44.1098 111.246 44.1578C111.022 44.2218 110.79 44.2699 110.55 44.3019C110.31 44.3499 110.086 44.3739 109.878 44.3739Z" fill="black"/>
<path d="M119.282 44.3739C117.986 44.3739 116.897 44.1418 116.017 43.6776C115.152 43.1974 114.496 42.4691 114.048 41.4926C113.6 40.5162 113.376 39.2756 113.376 37.771C113.376 36.2503 113.6 35.0098 114.048 34.0493C114.496 33.0729 115.16 32.3526 116.041 31.8884C116.921 31.4082 118.018 31.168 119.33 31.168C120.531 31.168 121.531 31.4001 122.332 31.8644C123.148 32.3126 123.764 33.0009 124.18 33.9293C124.597 34.8577 124.805 36.0262 124.805 37.4348V38.3953H115.945C115.977 39.2917 116.113 40.044 116.353 40.6523C116.593 41.2445 116.953 41.6847 117.433 41.9728C117.93 42.245 118.554 42.381 119.306 42.381C119.77 42.381 120.187 42.325 120.555 42.2129C120.923 42.0849 121.235 41.9088 121.491 41.6847C121.747 41.4446 121.947 41.1645 122.091 40.8443C122.236 40.5082 122.308 40.132 122.308 39.7158H124.757C124.757 40.4682 124.629 41.1325 124.372 41.7087C124.116 42.285 123.74 42.7732 123.244 43.1734C122.764 43.5575 122.187 43.8537 121.515 44.0618C120.843 44.2699 120.099 44.3739 119.282 44.3739ZM115.993 36.5704H122.187C122.187 35.9462 122.115 35.4259 121.971 35.0098C121.843 34.5776 121.651 34.2254 121.395 33.9533C121.139 33.6812 120.835 33.4891 120.483 33.377C120.131 33.249 119.73 33.1849 119.282 33.1849C118.61 33.1849 118.034 33.305 117.553 33.5451C117.089 33.7852 116.729 34.1614 116.473 34.6736C116.217 35.1698 116.057 35.8021 115.993 36.5704Z" fill="black"/>
<path d="M132.361 44.3739C131.097 44.3739 130.04 44.1418 129.192 43.6776C128.343 43.1974 127.703 42.4691 127.271 41.4926C126.855 40.5162 126.647 39.2756 126.647 37.771C126.647 36.2663 126.863 35.0338 127.295 34.0733C127.727 33.0969 128.367 32.3686 129.216 31.8884C130.08 31.4082 131.137 31.168 132.385 31.168C133.249 31.168 134.002 31.2801 134.642 31.5042C135.282 31.7123 135.827 32.0324 136.275 32.4646C136.723 32.8808 137.051 33.401 137.259 34.0253C137.483 34.6496 137.595 35.3619 137.595 36.1623H135.074C135.074 35.49 134.978 34.9377 134.786 34.5055C134.594 34.0733 134.298 33.7532 133.898 33.5451C133.498 33.321 132.977 33.209 132.337 33.209C131.665 33.209 131.097 33.369 130.632 33.6892C130.168 33.9933 129.816 34.4655 129.576 35.1058C129.336 35.7301 129.216 36.5544 129.216 37.5789V37.9871C129.216 38.9635 129.328 39.7799 129.552 40.4362C129.792 41.0764 130.144 41.5567 130.608 41.8768C131.089 42.1809 131.697 42.333 132.433 42.333C133.073 42.333 133.586 42.221 133.97 41.9969C134.37 41.7567 134.666 41.4206 134.858 40.9884C135.066 40.5402 135.17 40.004 135.17 39.3797H137.595C137.595 40.132 137.483 40.8123 137.259 41.4206C137.051 42.0289 136.723 42.5571 136.275 43.0053C135.843 43.4375 135.298 43.7736 134.642 44.0137C133.986 44.2539 133.225 44.3739 132.361 44.3739Z" fill="black"/>
<path d="M143.267 44.3739C142.547 44.3739 141.979 44.2378 141.563 43.9657C141.162 43.6776 140.874 43.3174 140.698 42.8852C140.538 42.437 140.458 41.9648 140.458 41.4686V33.5211H138.873V31.4562H140.506L140.962 27.9266H142.955V31.4562H145.236V33.5211H142.955V41.1805C142.955 41.5487 143.035 41.8288 143.195 42.0209C143.355 42.2129 143.62 42.309 143.988 42.309H145.236V43.9897C145.076 44.0538 144.876 44.1098 144.636 44.1578C144.412 44.2218 144.18 44.2699 143.94 44.3019C143.7 44.3499 143.475 44.3739 143.267 44.3739Z" fill="black"/>
<path d="M151.399 44.3739C150.183 44.3739 149.198 44.0538 148.446 43.4135C147.694 42.7572 147.318 41.6447 147.318 40.076V31.4562H149.815V39.6918C149.815 40.172 149.871 40.5722 149.983 40.8924C150.111 41.2125 150.287 41.4686 150.511 41.6607C150.735 41.8528 150.999 41.9888 151.303 42.0689C151.608 42.1489 151.944 42.1889 152.312 42.1889C152.888 42.1889 153.408 42.0529 153.873 41.7808C154.353 41.4926 154.737 41.1005 155.025 40.6042C155.313 40.092 155.457 39.5077 155.457 38.8515V31.4562H157.954V44.0858H155.913L155.697 42.285H155.529C155.225 42.7492 154.865 43.1334 154.449 43.4375C154.033 43.7416 153.568 43.9737 153.056 44.1338C152.56 44.2939 152.008 44.3739 151.399 44.3739Z" fill="black"/>
<path d="M161.178 44.0858V31.4562H163.243L163.459 33.4971H163.603C163.747 33.0969 163.931 32.7207 164.155 32.3686C164.396 32.0164 164.7 31.7283 165.068 31.5042C165.452 31.2801 165.916 31.168 166.461 31.168C166.717 31.168 166.941 31.1921 167.133 31.2401C167.341 31.2881 167.501 31.3281 167.613 31.3601V33.7132H166.773C166.26 33.7132 165.804 33.7932 165.404 33.9533C165.02 34.1134 164.692 34.3535 164.42 34.6736C164.163 34.9777 163.971 35.3539 163.843 35.8021C163.731 36.2503 163.675 36.7545 163.675 37.3148V44.0858H161.178Z" fill="black"/>
<path d="M174.479 44.3739C173.182 44.3739 172.094 44.1418 171.213 43.6776C170.349 43.1974 169.692 42.4691 169.244 41.4926C168.796 40.5162 168.572 39.2756 168.572 37.771C168.572 36.2503 168.796 35.0098 169.244 34.0493C169.692 33.0729 170.357 32.3526 171.237 31.8884C172.118 31.4082 173.214 31.168 174.527 31.168C175.727 31.168 176.728 31.4001 177.528 31.8644C178.344 32.3126 178.961 33.0009 179.377 33.9293C179.793 34.8577 180.001 36.0262 180.001 37.4348V38.3953H171.141C171.173 39.2917 171.309 40.044 171.549 40.6523C171.789 41.2445 172.15 41.6847 172.63 41.9728C173.126 42.245 173.75 42.381 174.503 42.381C174.967 42.381 175.383 42.325 175.751 42.2129C176.119 42.0849 176.431 41.9088 176.688 41.6847C176.944 41.4446 177.144 41.1645 177.288 40.8443C177.432 40.5082 177.504 40.132 177.504 39.7158H179.953C179.953 40.4682 179.825 41.1325 179.569 41.7087C179.313 42.285 178.937 42.7732 178.44 43.1734C177.96 43.5575 177.384 43.8537 176.712 44.0618C176.039 44.2699 175.295 44.3739 174.479 44.3739ZM171.189 36.5704H177.384C177.384 35.9462 177.312 35.4259 177.168 35.0098C177.04 34.5776 176.848 34.2254 176.592 33.9533C176.335 33.6812 176.031 33.4891 175.679 33.377C175.327 33.249 174.927 33.1849 174.479 33.1849C173.806 33.1849 173.23 33.305 172.75 33.5451C172.286 33.7852 171.925 34.1614 171.669 34.6736C171.413 35.1698 171.253 35.8021 171.189 36.5704Z" fill="black"/>
</svg>
