<svg width="40" height="40" viewBox="0 0 40 40" fill="none" xmlns="http://www.w3.org/2000/svg">
<path d="M27.625 20.1875C27.625 19.6875 27.5625 19.3125 27.5 18.9062H20.125V21.5625H24.5C24.3438 22.7188 23.1875 24.9062 20.125 24.9062C17.4688 24.9062 15.3125 22.7188 15.3125 20C15.3125 15.6562 20.4375 13.6562 23.1875 16.3125L25.3125 14.2812C23.9688 13.0312 22.1875 12.25 20.125 12.25C15.8125 12.25 12.375 15.7188 12.375 20C12.375 24.3125 15.8125 27.75 20.125 27.75C24.5938 27.75 27.625 24.625 27.625 20.1875Z" fill="white"/>
<rect opacity="0.1" width="40" height="40" rx="20" fill="#2387C0"/>
</svg>
