<svg width="92" height="92" viewBox="0 0 92 92" fill="none" xmlns="http://www.w3.org/2000/svg">
<g filter="url(#filter0_d_115_89)">
<circle cx="46" cy="36" r="31" fill="white"/>
</g>
<path d="M39.6163 31.4575C40.6101 30.3801 42.1139 29.834 44.0852 29.834H44.7935V31.8308L44.224 31.9448C43.2536 32.1389 42.5786 32.5207 42.2173 33.081C42.0288 33.3828 41.9219 33.7284 41.9071 34.084H44.0852C44.273 34.084 44.4532 34.1586 44.5861 34.2915C44.7189 34.4243 44.7935 34.6045 44.7935 34.7923V39.7506C44.7935 40.5319 44.1581 41.1673 43.3769 41.1673H39.1268C38.939 41.1673 38.7588 41.0927 38.626 40.9599C38.4931 40.827 38.4185 40.6468 38.4185 40.459V36.9173L38.4206 34.8497C38.4143 34.7711 38.2797 32.9082 39.6163 31.4575ZM51.1685 41.1673H46.9185C46.7307 41.1673 46.5505 41.0927 46.4176 40.9599C46.2848 40.827 46.2102 40.6468 46.2102 40.459V36.9173L46.2123 34.8497C46.2059 34.7711 46.0713 32.9082 47.408 31.4575C48.4018 30.3801 49.9056 29.834 51.8769 29.834H52.5852V31.8308L52.0157 31.9448C51.0453 32.1389 50.3702 32.5207 50.009 33.081C49.8205 33.3828 49.7136 33.7284 49.6987 34.084H51.8769C52.0647 34.084 52.2449 34.1586 52.3777 34.2915C52.5106 34.4243 52.5852 34.6045 52.5852 34.7923V39.7506C52.5852 40.5319 51.9498 41.1673 51.1685 41.1673Z" fill="#0A72AD"/>
<defs>
<filter id="filter0_d_115_89" x="0" y="0" width="92" height="92" filterUnits="userSpaceOnUse" color-interpolation-filters="sRGB">
<feFlood flood-opacity="0" result="BackgroundImageFix"/>
<feColorMatrix in="SourceAlpha" type="matrix" values="0 0 0 0 0 0 0 0 0 0 0 0 0 0 0 0 0 0 127 0" result="hardAlpha"/>
<feOffset dy="10"/>
<feGaussianBlur stdDeviation="7.5"/>
<feColorMatrix type="matrix" values="0 0 0 0 0.137255 0 0 0 0 0.529412 0 0 0 0 0.752941 0 0 0 0.15 0"/>
<feBlend mode="normal" in2="BackgroundImageFix" result="effect1_dropShadow_115_89"/>
<feBlend mode="normal" in="SourceGraphic" in2="effect1_dropShadow_115_89" result="shape"/>
</filter>
</defs>
</svg>
